<svg width="40" height="40" viewBox="0 0 40 40" fill="none" xmlns="http://www.w3.org/2000/svg">
<path d="M6.20764 21.8179H27.2725C28.2766 21.8179 29.0907 21.0038 29.0907 19.9997C29.0907 18.9956 28.2766 18.1815 27.2725 18.1815H6.20764L8.55842 15.8309C9.26849 15.1209 9.26849 13.9697 8.55842 13.2596C7.84861 12.5495 6.69733 12.5495 5.98715 13.2596L0.53297 18.7138C0.490788 18.7558 0.45103 18.7998 0.413212 18.8459C0.404 18.8572 0.396121 18.8693 0.387152 18.8808C0.359394 18.9161 0.332121 18.9515 0.307152 18.9888C0.299879 18.9997 0.293939 19.0112 0.286788 19.0223C0.261818 19.0613 0.237333 19.1007 0.215273 19.1418C0.21103 19.1499 0.207515 19.1585 0.203273 19.1666C0.180364 19.2111 0.158303 19.2562 0.13903 19.3027C0.136606 19.3084 0.134909 19.3145 0.132606 19.3203C0.112848 19.3693 0.0945455 19.4189 0.0790303 19.4699C0.0769697 19.4763 0.0758788 19.483 0.0740606 19.4895C0.0593939 19.5396 0.0459394 19.5901 0.0356364 19.6419C0.0326061 19.6573 0.0312727 19.6732 0.0284848 19.6887C0.0209697 19.7316 0.0134545 19.7745 0.00921212 19.8183C0.0030303 19.8783 0 19.9389 0 19.9997C0 20.0606 0.0030303 20.1212 0.00921212 20.1813C0.0134545 20.2257 0.0212121 20.2689 0.0286061 20.3122C0.0312727 20.3272 0.0326061 20.3426 0.0356364 20.3575C0.0460606 20.4098 0.0593939 20.4608 0.0741818 20.5114C0.076 20.5173 0.0770909 20.5236 0.0789091 20.5295C0.0945455 20.5808 0.112848 20.6309 0.132848 20.6803C0.13503 20.6857 0.136606 20.6914 0.138909 20.6967C0.158303 20.7436 0.180485 20.7889 0.203636 20.8337C0.207636 20.8415 0.21103 20.8498 0.215152 20.8577C0.237455 20.899 0.262061 20.9387 0.287394 20.9781C0.294182 20.9888 0.3 21.0001 0.30703 21.0105C0.332121 21.048 0.359636 21.0836 0.387273 21.119C0.396121 21.1304 0.404 21.1424 0.413091 21.1535C0.45103 21.1995 0.490788 21.2436 0.532848 21.2857L5.98703 26.7398C6.34206 27.095 6.80739 27.2724 7.27273 27.2724C7.73806 27.2724 8.20339 27.095 8.5583 26.7398C9.26836 26.0298 9.26836 24.8786 8.5583 24.1686L6.20764 21.8179Z" fill="#16445F"/>
<path d="M25.1274 5.12695C20.1645 5.12695 15.5471 7.58902 12.7755 11.7128C12.2155 12.5461 12.4371 13.6758 13.2705 14.2359C14.1039 14.7959 15.2335 14.5746 15.7937 13.741C17.8884 10.624 21.3776 8.7632 25.1274 8.7632C31.3232 8.76332 36.3639 13.8039 36.3639 19.9998C36.3639 26.1957 31.3232 31.2363 25.1274 31.2363C21.3886 31.2363 17.9051 29.3838 15.8089 26.281C15.2466 25.4489 14.1166 25.2302 13.2844 25.7923C12.4524 26.3545 12.2335 27.4847 12.7957 28.3167C15.5691 32.4219 20.1791 34.8727 25.1274 34.8727C33.3283 34.8727 40.0003 28.2008 40.0003 19.9998C40.0003 11.7988 33.3283 5.12695 25.1274 5.12695Z" fill="#16445F"/>
</svg>
