<svg width="40" height="40" viewBox="0 0 40 40" fill="none" xmlns="http://www.w3.org/2000/svg">
<path d="M29.371 30.0055C27.4543 30.0054 25.8949 28.4461 25.8949 26.5294V20.7565C25.8949 18.8398 27.4543 17.2804 29.371 17.2804H38.4286C38.4835 17.2804 38.538 17.2821 38.5923 17.2845V11.5338C38.5923 10.0535 37.3923 8.85352 35.912 8.85352H2.68039C1.20001 8.85343 0 10.0534 0 11.5337V35.752C0 37.2323 1.20001 38.4324 2.68039 38.4324H35.912C37.3923 38.4324 38.5923 37.2324 38.5923 35.752V30.0013C38.538 30.0038 38.4835 30.0055 38.4286 30.0055H29.371Z" fill="#16445F"/>
<path d="M38.4288 19.1851H29.3712C28.5034 19.1851 27.7998 19.8886 27.7998 20.7564V26.5293C27.7998 27.3971 28.5034 28.1006 29.3712 28.1006H38.4288C39.2966 28.1006 40.0002 27.3972 40.0002 26.5293V20.7564C40.0002 19.8885 39.2966 19.1851 38.4288 19.1851ZM32.4923 25.9108C31.2397 25.9108 30.2242 24.8954 30.2242 23.6428C30.2242 22.3902 31.2397 21.3747 32.4923 21.3747C33.7449 21.3747 34.7603 22.3902 34.7603 23.6428C34.7603 24.8954 33.7449 25.9108 32.4923 25.9108Z" fill="#16445F"/>
<path d="M31.2447 3.94363C30.645 2.12862 28.6876 1.14338 26.8726 1.74304L13.2559 6.24166H32.0039L31.2447 3.94363Z" fill="#16445F"/>
</svg>
