<svg width="40" height="40" viewBox="0 0 40 40" fill="none" xmlns="http://www.w3.org/2000/svg">
<g clip-path="url(#clip0_123:295)">
<mask id="path-1-inside-1_123:295" fill="white">
<path d="M38.9681 10.351L31.117 0.393836C30.9201 0.145548 30.629 0 30.3122 0H9.69581C9.37903 0 9.07937 0.145548 8.89101 0.393836L1.03999 10.351C0.894438 10.5308 0.817383 10.7534 0.817383 10.9846V38.9726C0.817383 39.5377 1.27971 40 1.84478 40H38.1547C38.7198 40 39.1821 39.5377 39.1821 38.9726V10.9846C39.1907 10.7534 39.1136 10.5308 38.9681 10.351ZM36.177 10.1284H21.0314V2.05479H29.8157L36.177 10.1284ZM10.1924 2.05479H18.9766V10.1284H3.83108L10.1924 2.05479ZM2.87218 37.9452V12.1832H37.1273V37.9452H2.87218Z"/>
</mask>
<path d="M38.9681 10.351L31.117 0.393836C30.9201 0.145548 30.629 0 30.3122 0H9.69581C9.37903 0 9.07937 0.145548 8.89101 0.393836L1.03999 10.351C0.894438 10.5308 0.817383 10.7534 0.817383 10.9846V38.9726C0.817383 39.5377 1.27971 40 1.84478 40H38.1547C38.7198 40 39.1821 39.5377 39.1821 38.9726V10.9846C39.1907 10.7534 39.1136 10.5308 38.9681 10.351ZM36.177 10.1284H21.0314V2.05479H29.8157L36.177 10.1284ZM10.1924 2.05479H18.9766V10.1284H3.83108L10.1924 2.05479ZM2.87218 37.9452V12.1832H37.1273V37.9452H2.87218Z" fill="#16445F"/>
<path d="M38.9681 10.351L36.6123 12.2085L36.6242 12.2236L36.6363 12.2386L38.9681 10.351ZM31.117 0.393836L33.4728 -1.46366L33.4675 -1.47035L31.117 0.393836ZM8.89101 0.393836L11.2468 2.25132L11.2642 2.22932L11.2811 2.207L8.89101 0.393836ZM1.03999 10.351L3.37172 12.2386L3.38384 12.2236L3.39577 12.2085L1.03999 10.351ZM39.1821 10.9846L36.1842 10.8736L36.1821 10.9291V10.9846H39.1821ZM36.177 10.1284V13.1284H42.36L38.5334 8.27176L36.177 10.1284ZM21.0314 10.1284H18.0314V13.1284H21.0314V10.1284ZM21.0314 2.05479V-0.945205H18.0314V2.05479H21.0314ZM29.8157 2.05479L32.1721 0.198131L31.2713 -0.945205H29.8157V2.05479ZM10.1924 2.05479V-0.945205H8.73679L7.83594 0.198131L10.1924 2.05479ZM18.9766 2.05479H21.9766V-0.945205H18.9766V2.05479ZM18.9766 10.1284V13.1284H21.9766V10.1284H18.9766ZM3.83108 10.1284L1.47464 8.27176L-2.35198 13.1284H3.83108V10.1284ZM2.87218 37.9452H-0.127823V40.9452H2.87218V37.9452ZM2.87218 12.1832V9.18322H-0.127823V12.1832H2.87218ZM37.1273 12.1832H40.1273V9.18322H37.1273V12.1832ZM37.1273 37.9452V40.9452H40.1273V37.9452H37.1273ZM41.3239 8.49354L33.4728 -1.46365L28.7613 2.25132L36.6123 12.2085L41.3239 8.49354ZM33.4675 -1.47035C32.7217 -2.41077 31.5767 -3 30.3122 -3V3C29.6813 3 29.1186 2.70187 28.7665 2.25802L33.4675 -1.47035ZM30.3122 -3H9.69581V3H30.3122V-3ZM9.69581 -3C8.47022 -3 7.27419 -2.43861 6.50094 -1.41932L11.2811 2.207C10.8846 2.7297 10.2878 3 9.69581 3V-3ZM6.53522 -1.46365L-1.3158 8.49354L3.39577 12.2085L11.2468 2.25132L6.53522 -1.46365ZM-1.29175 8.46343C-1.87918 9.18909 -2.18262 10.0816 -2.18262 10.9846H3.81738C3.81738 11.4253 3.66806 11.8726 3.37172 12.2386L-1.29175 8.46343ZM-2.18262 10.9846V38.9726H3.81738V10.9846H-2.18262ZM-2.18262 38.9726C-2.18262 41.1945 -0.377143 43 1.84478 43V37C2.93657 37 3.81738 37.8808 3.81738 38.9726H-2.18262ZM1.84478 43H38.1547V37H1.84478V43ZM38.1547 43C40.3766 43 42.1821 41.1945 42.1821 38.9726H36.1821C36.1821 37.8808 37.0629 37 38.1547 37V43ZM42.1821 38.9726V10.9846H36.1821V38.9726H42.1821ZM42.18 11.0956C42.2164 10.1143 41.8855 9.18695 41.2998 8.46343L36.6363 12.2386C36.3417 11.8747 36.1649 11.3926 36.1842 10.8736L42.18 11.0956ZM36.177 7.12843H21.0314V13.1284H36.177V7.12843ZM24.0314 10.1284V2.05479H18.0314V10.1284H24.0314ZM21.0314 5.05479H29.8157V-0.945205H21.0314V5.05479ZM27.4592 3.91146L33.8205 11.9851L38.5334 8.27176L32.1721 0.198131L27.4592 3.91146ZM10.1924 5.05479H18.9766V-0.945205H10.1924V5.05479ZM15.9766 2.05479V10.1284H21.9766V2.05479H15.9766ZM18.9766 7.12843H3.83108V13.1284H18.9766V7.12843ZM6.18752 11.9851L12.5488 3.91146L7.83594 0.198131L1.47464 8.27176L6.18752 11.9851ZM5.87218 37.9452V12.1832H-0.127823V37.9452H5.87218ZM2.87218 15.1832H37.1273V9.18322H2.87218V15.1832ZM34.1273 12.1832V37.9452H40.1273V12.1832H34.1273ZM37.1273 34.9452H2.87218V40.9452H37.1273V34.9452Z" fill="#16445F" mask="url(#path-1-inside-1_123:295)"/>
<path d="M20.0899 17.8683L20.1327 17.7827L20.0899 17.8683ZM20.0899 17.8683L20.0685 17.9111M20.0899 17.8683L20.0685 17.9111M20.0685 17.9111L20.0899 17.9539L20.1006 17.9753L20.1006 17.9753L20.1162 18.0066L19.6789 17.4573V17.5857V17.5858V17.62V17.697V17.7333M20.0685 17.9111L20.0428 17.8597L20.0214 17.8169L19.9969 17.8414L19.9871 17.8511L19.9871 17.8512L19.9871 17.8512L19.9795 17.8588L19.9486 17.8897L19.9472 17.8911M20.0685 17.9111L20.0428 17.9625L20.0685 17.9111ZM19.9472 17.8911L19.9129 17.9254M19.9472 17.8911L19.9572 17.9111L19.9472 17.8911ZM19.9129 17.9254L19.9058 17.9111M19.9129 17.9254L19.8844 17.9539L19.9058 17.9111M19.9129 17.9254L19.9315 17.9625L19.9315 17.9625L19.9614 18.0224L19.9717 18.0429L19.9871 18.0738M19.9058 17.9111L19.9272 17.8683L19.9315 17.8597M19.9058 17.9111L19.8844 17.8683L19.8416 17.7827L19.7816 17.6628L19.7759 17.6514M19.9315 17.8597L19.9443 17.8854L19.9315 17.8597ZM19.9315 17.8597L19.9614 17.7998L19.97 17.7827L19.9871 17.7484L19.9586 17.6913L19.8844 17.5429L19.8501 17.5772L19.8416 17.5857L19.8102 17.6171M19.9315 17.8597L19.8844 17.7655L19.9315 17.8597ZM19.8102 17.6171L19.7816 17.6457L19.7759 17.6514M19.8102 17.6171L19.8416 17.6799L19.8102 17.6171ZM19.7759 17.6514L19.7709 17.6413L19.7355 17.6766L19.7303 17.6819L19.7281 17.6841M19.7759 17.6514L19.7431 17.6842L19.7331 17.6942M19.7281 17.6841V17.6841ZM19.7281 17.6841L19.691 17.7212L19.6789 17.7333M19.6789 17.7333V17.7484L19.6482 17.764L19.6789 17.7333ZM19.9871 18.0738L20.0025 18.0429L19.9871 18.0738ZM19.9871 18.0738L19.7331 17.6942M20.0449 18.0866L20.0727 18.1422L20.0449 18.0866ZM20.0449 18.0866L20.0449 18.0866L20.0449 18.0866ZM19.7331 17.6942V17.6942ZM19.7816 17.5601L19.7303 17.4573L19.7816 17.5601ZM19.7816 17.5601L19.8051 17.607L19.7816 17.5601ZM25.1574 22.6467L25.1553 22.6446L25.1574 22.6467ZM19.9572 17.9111L19.982 17.9607L19.9572 17.9111Z" fill="#16445F" stroke="#16445F" stroke-width="3"/>
</g>
<defs>
<clipPath id="clip0_123:295">
<rect width="40" height="40" fill="white"/>
</clipPath>
</defs>
</svg>
